<?xml version="1.0" encoding="UTF-8"?><!DOCTYPE svg PUBLIC "-//W3C//DTD SVG 1.1//EN" "http://www.w3.org/Graphics/SVG/1.1/DTD/svg11.dtd"><svg xmlns="http://www.w3.org/2000/svg"><symbol id="icon-heart" viewBox="0 0 32 32"><path d="M29.2 5.3C25.6 1.7 19.8 1.6 16 5c-3.8-3.4-9.6-3.3-13.2.3C-.9 9-.9 15 2.8 18.7c1.1 1.1 11.1 10.9 11.1 10.9 1.2 1.2 3.1 1.2 4.3 0 0 0 10.9-10.8 11.1-10.9C33 15 33 9 29.3 5.3zm-1.4 12L16.7 28.2c-.4.4-1 .4-1.4 0L4.2 17.3c-2.9-2.9-2.9-7.7 0-10.6 2.8-2.8 7.4-2.9 10.4-.2L16 7.7l1.4-1.2c3-2.7 7.6-2.6 10.4.2 3 2.9 3 7.7 0 10.6zM9.3 7.5c.3 0 .5.2.5.5s-.2.5-.5.5c-1.8 0-3.2 1.5-3.2 3.2 0 .3-.2.5-.5.5s-.5-.2-.5-.5c0-2.3 1.9-4.2 4.2-4.2z"/></symbol><symbol id="icon-logo" viewBox="0 0 80 90"><path d="M38.3 40.7c-2.7-3.1-.9-6.4-.1-7.7.2-.3.4-.5.4-.5.2-.2.2-.5-.1-.7-.2-.2-.5-.2-.7.1 0 .1-1.1 1.4-1.7 3.2-.2.5-.3 1.1-.3 1.8 0 1.5.4 3.3 2.1 4.9.1.1.2.1.4.1.1 0 .3-.1.4-.2.2-.2.2-.5 0-.7-.2 0-.3-.1-.4-.3zm41.6-1.9l-.6-.7c-2.2-2.6-4.6-4.9-7.4-7l-.1-.1-.1-.1-1-.7-1.1-.8-.3-.2-.5-1.4-.2-.6-5-14.9c-.2-.6-.7-1.1-1.2-1.2-.5-.1-1.1 0-1.6.4l-4.6 3L45.2.7c-.4-.5-.9-.7-1.4-.7-.5 0-1 .2-1.4.7L31.8 13.6l-9.6-7.8c-.4-.4-.9-.5-1.5-.5-.6.1-1 .4-1.3.9l-11 22.1-.8 1.7-.1.2-.5.8c0 .1-.1.2-.1.3l-.3.3-1 .8c-1.7 1.4-3.3 3-4.8 4.6l-.6.7 24 31.9 9.5 12.7 5.8 7.7 6.1-7.7 10-12.6 24.3-30.9zm-2.9 0l-1.5 1.9c-6.1-5.9-15.8-10.5-22.3-12-.4-.1-.8.2-.9.6-.1.4.2.8.6.9 1.1.3 2.2.6 3.5 1 5 1.7 11 4.7 15.7 8.5.9.7 1.7 1.4 2.5 2.2l-1.8 2.2c-7.8-6-14.5-9.1-23.7-10.7-.4-.1-.8.2-.9.6-.1.4.2.8.6.9 1.1.2 2.1.4 3.1.6 6.8 1.6 12.2 4.1 18.1 8.6.6.4 1.1.9 1.7 1.3l-2.3 3c-1.8-.7-3.1-2.1-3.5-3.8-.6 2.5-3.2 4.4-6.4 4.4-3.1 0-5.7-1.8-6.3-4.2-.1.5-.4 1-.7 1.4-6.5-3-10.5-6.5-10.9-9.7-.3-1.9.7-3.8 2.8-5.5 2.3-1.9 3.4-3.9 3.2-5.9-.1-.7-.3-1.3-.6-1.8 4.9.7 9.7 2.1 14.1 4.1 6.3 2.7 11.7 6.7 15.9 11.4zm-27.5 9.8c-3.1-1.2-4.2-2.4-4.3-2.4-.2-.2-.5-.2-.7 0-.2.2-.2.5 0 .7 0 .1.9 1 3.3 2.1h-.9c-3.3 0-5.9-2-6.4-4.6-.2.9-.6 1.6-1.1 2.3-1.8-1.1-5.9-4.1-5.3-8.1 0-.2.1-.3.1-.5s0-.3-.1-.4c-.1-.1-.2-.1-.3-.2-.3-.1-.5.1-.6.4v.2c-.5 2.5.4 5.1 2.8 7.4.9.9 1.9 1.6 2.7 2.1-.4.3-.8.6-1.3.9-4.4-2.1-6.8-4.9-7-8.1-.1-2.2 1-4.5 3-6.5 1-1 2.2-1.9 3.5-2.7 1.2-.7 2.1-1.4 2.9-2 1.6-1.4 2.4-2.9 2.4-4.3 0-.7-.2-1.3-.4-1.8.9 0 1.8.1 2.6.2.6.5 1.4 1.3 1.5 2.4.1 1.1-.5 2.3-1.9 3.6-.2.2-.4.4-.7.6-2.2 1.8-3.4 3.8-3.6 5.9v1.4c.5 3.8 4.6 7.7 11.4 10.9-.5 0-1 .3-1.6.5zm12.2-35.1l1.7 5-1.3-.8c-.3-.2-.6-.2-.8 0l-1.3.8-.1-1.4c0-.4-.3-.7-.7-.7l-1.4-.2 3.9-2.7zm-17.9-11l4.8 5.9-2.7-.3c-.2 0-.4 0-.6.2l-1.9 1.5-1.3-2.1c-.1-.2-.4-.4-.7-.4h-1.6l4-4.8zm-5.2 6.4V9h2.3l1.5 2.5c.1.2.3.3.5.4h.1c.2 0 .4-.1.5-.2l2.4-1.9 4 .4 4.5 5.5-1.3.8-1.3.8c-.5.3-.7 1-.3 1.5.3.5 1 .7 1.5.3l.4-.2 2.3-1.5 2.5.4.2 2.1c0 .3.2.5.4.6.2.1.5.1.8 0l1.9-1.2 2.5 1.5 2.2 6.6c-1.3-.7-2.6-1.4-4-2-.1 0-.2-.1-.2-.1-6.7-3-14.3-4.7-21.9-4.8l-5.7-4.6-1-.8 5.2-6.2zm1.6 11.6H40c-.1-.1 0-.1.2 0zm-19-12.7l6.3 5.2-2.6-.1c-.3 0-.6.2-.7.4l-.9 1.9-2.2-1.5c-.2-.2-.5-.2-.7-.1l-2.5.9 3.3-6.7zm-4.4 8.7l3.7-1.4 2.6 1.8c.1.1.3.1.5.1h.2c.2-.1.4-.2.5-.4l1.1-2.2 4.2.2 7.3 5.9c-6.7.3-13.2 1.8-19.2 4.4-2.4 1-4.7 2.3-6.9 3.7l6-12.1zm9 18.9c-.1-.4-.5-.7-.9-.6-6.2 1.5-15.3 8-17.1 9.2l-1.9-2.5c.6-.6 1.4-1.2 2.2-1.9 4.8-3.8 12.4-8.5 20-10.1.8-.2 1.6-.3 2.5-.4.4-.1.7-.4.7-.9-.1-.4-.4-.7-.9-.7C20.5 28.7 9.9 35.7 5 40.2l-1.9-2.5c4.2-4.5 9.6-8.2 15.5-10.8 6.5-2.8 13.4-4.3 20.7-4.3.4.4.9 1 .9 1.8 0 1.4-1.6 3-4.4 4.7-4.8 2.8-7.6 6.9-7.5 11 .1 3.4 2.3 6.4 6.2 8.8h-.4c-3.1 0-5.8-1.9-6.4-4.4-.6 2.5-3.2 4.4-6.4 4.4-3.1 0-5.7-1.8-6.3-4.2-.5 1.7-1.9 3.1-3.8 3.8l-2.5-3.3c1-.7 4.3-3 8-5.2.9-.5 1.7-1 2.6-1.4 2.1-1.1 4.1-1.9 5.9-2.3.4 0 .7-.5.6-.9zM14.9 48c1.5 1.6 3.8 2.6 6.3 2.6 1.8 0 3.7-.6 5.1-1.6.5-.3.9-.7 1.3-1.1.4.4.8.8 1.3 1.1 1.4 1 3.2 1.6 5.1 1.6 1.9 0 3.8-.6 5.2-1.7.4-.3.8-.7 1.2-1.1.4.4.8.8 1.2 1.1 1.5 1.1 3.3 1.7 5.2 1.7 2.5 0 4.8-1 6.3-2.6 1.5 1.6 3.8 2.6 6.3 2.6 1.8 0 3.7-.6 5.1-1.6.5-.3.9-.7 1.3-1.1.4.4.8.8 1.3 1.1.4.3.7.5 1.1.7l-5 6.3c-1.7-.7-2.9-2-3.3-3.6-.7 2.4-3.3 4.2-6.3 4.2-3.3 0-5.9-2-6.4-4.6-.5 2.6-3.2 4.6-6.4 4.6-3.1 0-5.8-1.9-6.4-4.4-.6 2.5-3.2 4.4-6.4 4.4-3.1 0-5.7-1.8-6.3-4.2-.5 2-2.3 3.5-4.6 4l-5-6.6c1.1-.3 2.1-.9 2.8-1.8zm6.8 7.8c1.5 1.6 3.8 2.6 6.3 2.6 1.8 0 3.7-.6 5.1-1.6.5-.3.9-.7 1.3-1.1.4.4.8.8 1.3 1.1 1.4 1 3.2 1.6 5.1 1.6 1.9 0 3.8-.6 5.2-1.7.4-.3.8-.7 1.2-1.1.4.4.8.8 1.2 1.1 1.5 1.1 3.3 1.7 5.2 1.7 2.5 0 4.8-1 6.3-2.6.6.7 1.4 1.3 2.3 1.7l-5.3 6.7c-1.8-.7-3.1-2.1-3.6-3.7-.7 2.4-3.3 4.2-6.3 4.2-3.3 0-5.9-2-6.4-4.6-.5 2.6-3.2 4.6-6.4 4.6-3.1 0-5.8-1.9-6.4-4.4-.5 2.1-2.4 3.7-4.8 4.2L18.1 58c1.5-.5 2.7-1.2 3.6-2.2zm21.1 26.4l-.1.1-3.2 4-7.9-10.4c.8-.3 1.5-.6 2.1-1.1.4-.3.8-.7 1.2-1.1.4.4.8.8 1.2 1.1 1.5 1.1 3.3 1.7 5.2 1.7 2.5 0 4.8-1 6.3-2.6.3.3.6.6 1 .9l-5.8 7.4zm7-8.8c-1-.7-1.7-1.7-2-2.8-.7 2.4-3.3 4.2-6.3 4.2-3.3 0-5.9-2-6.4-4.6-.4 2-2.1 3.7-4.3 4.4l-4-5.2-2.5-3.3c.9-.3 1.7-.7 2.5-1.2.5-.3.9-.7 1.3-1.1.4.4.8.8 1.3 1.1 1.4 1 3.2 1.6 5.1 1.6 1.9 0 3.8-.6 5.2-1.7.4-.3.8-.7 1.2-1.1.4.4.8.8 1.2 1.1 1.5 1.1 3.3 1.7 5.2 1.7 2.5 0 4.8-1 6.3-2.6.7.7 1.5 1.4 2.5 1.8L53 69.6l-3.2 3.8z" fill-rule="evenodd"/></symbol></svg>