<svg xmlns="http://www.w3.org/2000/svg" version="1.1" width="32" height="32" viewBox="0 0 32 32"><path d="M29.2 5.3c-3.6-3.6-9.4-3.7-13.2-0.3-3.8-3.4-9.6-3.3-13.2 0.3-3.7 3.7-3.7 9.7 0 13.4 1.1 1.1 11.1 10.9 11.1 10.9 1.2 1.2 3.1 1.2 4.3 0 0 0 10.9-10.8 11.1-10.9 3.7-3.7 3.7-9.7 0-13.4zM27.8 17.3l-11.1 10.9c-0.4 0.4-1 0.4-1.4 0l-11.1-10.9c-2.9-2.9-2.9-7.7 0-10.6 2.8-2.8 7.4-2.9 10.4-0.2l1.4 1.2 1.4-1.2c3-2.7 7.6-2.6 10.4 0.2 3 2.9 3 7.7 0 10.6zM9.3 7.5c0.3 0 0.5 0.2 0.5 0.5s-0.2 0.5-0.5 0.5h0c-1.8 0-3.2 1.5-3.2 3.2v0c0 0.3-0.2 0.5-0.5 0.5s-0.5-0.2-0.5-0.5v0c0-2.3 1.9-4.2 4.2-4.2 0 0 0 0 0 0z"/></svg>
