<svg xmlns="http://www.w3.org/2000/svg" width="80" height="90" viewBox="0 0 80 90" version="1.1"><g stroke="none" stroke-width="1" fill-rule="evenodd"><path d="M38.3 40.7C35.6 37.6 37.4 34.3 38.2 33 38.4 32.7 38.6 32.5 38.6 32.5 38.8 32.3 38.8 32 38.5 31.8 38.3 31.6 38 31.6 37.8 31.9 37.8 32 36.7 33.3 36.1 35.1 35.9 35.6 35.8 36.2 35.8 36.9 35.8 38.4 36.2 40.2 37.9 41.8 38 41.9 38.1 41.9 38.3 41.9 38.4 41.9 38.6 41.8 38.7 41.7 38.9 41.5 38.9 41.2 38.7 41 38.5 41 38.4 40.9 38.3 40.7L38.3 40.7ZM79.9 38.8L79.3 38.1C77.1 35.5 74.7 33.2 71.9 31.1L71.9 31.1 71.8 31 71.7 30.9 71.7 30.9 70.7 30.2 69.6 29.4 69.3 29.2 68.8 27.8 68.8 27.8 68.6 27.2 68.6 27.2 63.6 12.3C63.4 11.7 62.9 11.2 62.4 11.1 61.9 11 61.3 11.1 60.8 11.5L56.2 14.5 45.2 0.7C44.8 0.2 44.3 0 43.8 0L43.8 0C43.3 0 42.8 0.2 42.4 0.7L31.8 13.6 22.2 5.8C21.8 5.4 21.3 5.3 20.7 5.3 20.1 5.4 19.7 5.7 19.4 6.2L8.4 28.3 7.6 30 7.5 30.2 7 31C7 31.1 6.9 31.2 6.9 31.3 6.8 31.4 6.7 31.5 6.6 31.6L6.6 31.6 5.6 32.4C3.9 33.8 2.3 35.4 0.8 37L0.2 37.7 24.2 69.6 33.7 82.3 39.5 90 45.6 82.3 55.6 69.7 79.9 38.8 79.9 38.8ZM77 38.8L75.5 40.7C69.4 34.8 59.7 30.2 53.2 28.7 52.8 28.6 52.4 28.9 52.3 29.3 52.2 29.7 52.5 30.1 52.9 30.2 54 30.5 55.1 30.8 56.4 31.2 61.4 32.9 67.4 35.9 72.1 39.7 73 40.4 73.8 41.1 74.6 41.9L72.8 44.1C65 38.1 58.3 35 49.1 33.4 48.7 33.3 48.3 33.6 48.2 34 48.1 34.4 48.4 34.8 48.8 34.9 49.9 35.1 50.9 35.3 51.9 35.5 58.7 37.1 64.1 39.6 70 44.1 70.6 44.5 71.1 45 71.7 45.4L69.4 48.4C67.6 47.7 66.3 46.3 65.9 44.6 65.3 47.1 62.7 49 59.5 49 56.4 49 53.8 47.2 53.2 44.8 53.1 45.3 52.8 45.8 52.5 46.2 46 43.2 42 39.7 41.6 36.5 41.3 34.6 42.3 32.7 44.4 31 46.7 29.1 47.8 27.1 47.6 25.1 47.5 24.4 47.3 23.8 47 23.3 51.9 24 56.7 25.4 61.1 27.4 67.4 30.1 72.8 34.1 77 38.8L77 38.8ZM49.5 48.6C46.4 47.4 45.3 46.2 45.2 46.2 45 46 44.7 46 44.5 46.2 44.3 46.4 44.3 46.7 44.5 46.9 44.5 47 45.4 47.9 47.8 49L46.9 49C43.6 49 41 47 40.5 44.4 40.3 45.3 39.9 46 39.4 46.7L39.4 46.7C37.6 45.6 33.5 42.6 34.1 38.6 34.1 38.4 34.2 38.3 34.2 38.1 34.2 37.9 34.2 37.8 34.1 37.7 34 37.6 33.9 37.6 33.8 37.5 33.5 37.4 33.3 37.6 33.2 37.9L33.2 38.1C32.7 40.6 33.6 43.2 36 45.5 36.9 46.4 37.9 47.1 38.7 47.6 38.3 47.9 37.9 48.2 37.4 48.5L37.4 48.5C33 46.4 30.6 43.6 30.4 40.4 30.3 38.2 31.4 35.9 33.4 33.9 34.4 32.9 35.6 32 36.9 31.2 38.1 30.5 39 29.8 39.8 29.2 41.4 27.8 42.2 26.3 42.2 24.9 42.2 24.2 42 23.6 41.8 23.1 42.7 23.1 43.6 23.2 44.4 23.3 45 23.8 45.8 24.6 45.9 25.7 46 26.8 45.4 28 44 29.3 43.8 29.5 43.6 29.7 43.3 29.9 41.1 31.7 39.9 33.7 39.7 35.8L39.7 37.2C40.2 41 44.3 44.9 51.1 48.1 50.6 48.1 50.1 48.4 49.5 48.6L49.5 48.6ZM61.7 13.5L63.4 18.5 62.1 17.7C61.8 17.5 61.5 17.5 61.3 17.7L60 18.5 59.9 17.1C59.9 16.7 59.6 16.4 59.2 16.4L57.8 16.2 61.7 13.5 61.7 13.5ZM43.8 2.5L48.6 8.4 45.9 8.1C45.7 8.1 45.5 8.1 45.3 8.3L43.4 9.8 42.1 7.7C42 7.5 41.7 7.3 41.4 7.3L39.8 7.3 43.8 2.5 43.8 2.5ZM38.6 8.9L38.6 9 40.9 9 42.4 11.5C42.5 11.7 42.7 11.8 42.9 11.9L43 11.9C43.2 11.9 43.4 11.8 43.5 11.7L45.9 9.8 49.9 10.2 54.4 15.7 53.1 16.5 51.8 17.3C51.3 17.6 51.1 18.3 51.5 18.8 51.8 19.3 52.5 19.5 53 19.1L53.4 18.9 55.7 17.4 58.2 17.8 58.4 19.9C58.4 20.2 58.6 20.4 58.8 20.5 59 20.6 59.3 20.6 59.6 20.5L61.5 19.3 64 20.8 66.2 27.4C64.9 26.7 63.6 26 62.2 25.4 62.1 25.4 62 25.3 62 25.3 55.3 22.3 47.7 20.6 40.1 20.5L34.4 15.9 33.4 15.1 38.6 8.9 38.6 8.9ZM40.2 20.5L40 20.5C39.9 20.4 40 20.4 40.2 20.5L40.2 20.5ZM21.2 7.8L27.5 13 24.9 12.9C24.6 12.9 24.3 13.1 24.2 13.3L23.3 15.2 21.1 13.7C20.9 13.5 20.6 13.5 20.4 13.6L17.9 14.5 21.2 7.8 21.2 7.8ZM16.8 16.5L20.5 15.1 23.1 16.9C23.2 17 23.4 17 23.6 17L23.8 17C24 16.9 24.2 16.8 24.3 16.6L25.4 14.4 29.6 14.6 36.9 20.5C30.2 20.8 23.7 22.3 17.7 24.9 15.3 25.9 13 27.2 10.8 28.6L16.8 16.5 16.8 16.5ZM25.8 35.4C25.7 35 25.3 34.7 24.9 34.8 18.7 36.3 9.6 42.8 7.8 44L5.9 41.5C6.5 40.9 7.3 40.3 8.1 39.6 12.9 35.8 20.5 31.1 28.1 29.5 28.9 29.3 29.7 29.2 30.6 29.1 31 29 31.3 28.7 31.3 28.2 31.2 27.8 30.9 27.5 30.4 27.5 20.5 28.7 9.9 35.7 5 40.2L3.1 37.7C7.3 33.2 12.7 29.5 18.6 26.9 25.1 24.1 32 22.6 39.3 22.6 39.7 23 40.2 23.6 40.2 24.4 40.2 25.8 38.6 27.4 35.8 29.1 31 31.9 28.2 36 28.3 40.1 28.4 43.5 30.6 46.5 34.5 48.9L34.1 48.9C31 48.9 28.3 47 27.7 44.5 27.1 47 24.5 48.9 21.3 48.9 18.2 48.9 15.6 47.1 15 44.7 14.5 46.4 13.1 47.8 11.2 48.5L8.7 45.2C9.7 44.5 13 42.2 16.7 40 17.6 39.5 18.4 39 19.3 38.6 21.4 37.5 23.4 36.7 25.2 36.3 25.6 36.3 25.9 35.8 25.8 35.4L25.8 35.4ZM14.9 48C16.4 49.6 18.7 50.6 21.2 50.6 23 50.6 24.9 50 26.3 49 26.8 48.7 27.2 48.3 27.6 47.9 28 48.3 28.4 48.7 28.9 49 30.3 50 32.1 50.6 34 50.6 35.9 50.6 37.8 50 39.2 48.9 39.6 48.6 40 48.2 40.4 47.8 40.8 48.2 41.2 48.6 41.6 48.9 43.1 50 44.9 50.6 46.8 50.6 49.3 50.6 51.6 49.6 53.1 48 54.6 49.6 56.9 50.6 59.4 50.6 61.2 50.6 63.1 50 64.5 49 65 48.7 65.4 48.3 65.8 47.9 66.2 48.3 66.6 48.7 67.1 49 67.5 49.3 67.8 49.5 68.2 49.7L63.2 56C61.5 55.3 60.3 54 59.9 52.4 59.2 54.8 56.6 56.6 53.6 56.6 50.3 56.6 47.7 54.6 47.2 52 46.7 54.6 44 56.6 40.8 56.6 37.7 56.6 35 54.7 34.4 52.2 33.8 54.7 31.2 56.6 28 56.6 24.9 56.6 22.3 54.8 21.7 52.4 21.2 54.4 19.4 55.9 17.1 56.4L12.1 49.8C13.2 49.5 14.2 48.9 14.9 48L14.9 48ZM21.7 55.8C23.2 57.4 25.5 58.4 28 58.4 29.8 58.4 31.7 57.8 33.1 56.8 33.6 56.5 34 56.1 34.4 55.7 34.8 56.1 35.2 56.5 35.7 56.8 37.1 57.8 38.9 58.4 40.8 58.4 42.7 58.4 44.6 57.8 46 56.7 46.4 56.4 46.8 56 47.2 55.6 47.6 56 48 56.4 48.4 56.7 49.9 57.8 51.7 58.4 53.6 58.4 56.1 58.4 58.4 57.4 59.9 55.8 60.5 56.5 61.3 57.1 62.2 57.5L56.9 64.2C55.1 63.5 53.8 62.1 53.3 60.5 52.6 62.9 50 64.7 47 64.7 43.7 64.7 41.1 62.7 40.6 60.1 40.1 62.7 37.4 64.7 34.2 64.7 31.1 64.7 28.4 62.8 27.8 60.3 27.3 62.4 25.4 64 23 64.5L18.1 58C19.6 57.5 20.8 56.8 21.7 55.8L21.7 55.8ZM42.8 82.2L42.7 82.3 39.5 86.3 31.6 75.9C32.4 75.6 33.1 75.3 33.7 74.8 34.1 74.5 34.5 74.1 34.9 73.7 35.3 74.1 35.7 74.5 36.1 74.8 37.6 75.9 39.4 76.5 41.3 76.5 43.8 76.5 46.1 75.5 47.6 73.9 47.9 74.2 48.2 74.5 48.6 74.8L42.8 82.2 42.8 82.2ZM49.8 73.4C48.8 72.7 48.1 71.7 47.8 70.6 47.1 73 44.5 74.8 41.5 74.8 38.2 74.8 35.6 72.8 35.1 70.2 34.7 72.2 33 73.9 30.8 74.6L26.8 69.4 24.3 66.1C25.2 65.8 26 65.4 26.8 64.9 27.3 64.6 27.7 64.2 28.1 63.8 28.5 64.2 28.9 64.6 29.4 64.9 30.8 65.9 32.6 66.5 34.5 66.5 36.4 66.5 38.3 65.9 39.7 64.8 40.1 64.5 40.5 64.1 40.9 63.7 41.3 64.1 41.7 64.5 42.1 64.8 43.6 65.9 45.4 66.5 47.3 66.5 49.8 66.5 52.1 65.5 53.6 63.9 54.3 64.6 55.1 65.3 56.1 65.7L53 69.6 49.8 73.4 49.8 73.4Z"/></g></svg>
